<svg width="18" height="18" viewBox="0 0 18 18" fill="none" xmlns="http://www.w3.org/2000/svg">
<path d="M15.8955 9.03295C15.8955 9.21827 15.8549 9.39516 15.774 9.56299C15.6927 9.73104 15.5885 9.87859 15.4612 10.006C15.3334 10.1337 15.1831 10.2378 15.0093 10.3188C14.8356 10.3998 14.6559 10.4404 14.4707 10.4404C14.2275 10.4404 13.9957 10.3769 13.7757 10.2494C13.5555 10.1221 13.3819 9.95405 13.2544 9.74551H9.72768V13.2725C9.93601 13.4002 10.104 13.5739 10.2315 13.7938C10.3588 14.014 10.4226 14.2455 10.4226 14.4888C10.4226 14.6742 10.3848 14.851 10.3097 15.0188C10.2342 15.1869 10.13 15.3344 9.99689 15.4618C9.86349 15.5896 9.71292 15.6936 9.54519 15.7746C9.37714 15.8556 9.20036 15.8962 9.01514 15.8962C8.82972 15.8962 8.65293 15.8557 8.48519 15.7746C8.31715 15.6936 8.16647 15.5896 8.0335 15.4618C7.9001 15.3345 7.79594 15.1869 7.72071 15.0188C7.64527 14.8509 7.60781 14.6742 7.60781 14.4888C7.60781 14.2456 7.67129 14.014 7.79886 13.7938C7.92612 13.5739 8.09416 13.4002 8.3027 13.2725L8.3029 9.74525H4.7065C4.57894 9.95378 4.40506 10.1218 4.1852 10.2491C3.96502 10.3767 3.7335 10.4401 3.49022 10.4401C3.3048 10.4401 3.12801 10.3997 2.96027 10.3185C2.79222 10.2375 2.64154 10.1335 2.50858 10.0057C2.37538 9.87845 2.27112 9.73081 2.19579 9.56274C2.12035 9.39499 2.08289 9.21829 2.08289 9.03289C2.08289 8.84787 2.12035 8.66816 2.19579 8.49431C2.27092 8.32054 2.37539 8.17018 2.50858 8.04261C2.64167 7.91515 2.79223 7.81108 2.96027 7.72982C3.12802 7.64886 3.3049 7.60818 3.49022 7.60818C3.7334 7.60818 3.96503 7.67187 4.1852 7.79923C4.40508 7.9268 4.57886 8.09453 4.7065 8.30308H8.30316L8.30306 4.70668C8.09453 4.57921 7.92647 4.40543 7.79921 4.18527C7.67165 3.96549 7.60817 3.73357 7.60817 3.49029C7.60817 3.30527 7.64563 3.12839 7.72107 2.96034C7.7962 2.7926 7.90047 2.64192 8.03385 2.50865C8.16695 2.37555 8.31751 2.27129 8.48555 2.19586C8.6534 2.12072 8.83007 2.08286 9.0155 2.08286C9.20072 2.08286 9.3775 2.12072 9.54555 2.19586C9.71329 2.27119 9.86397 2.37556 9.99724 2.50865C10.1303 2.64204 10.2344 2.79261 10.31 2.96034C10.3852 3.12839 10.4229 3.30517 10.4229 3.49029C10.4229 3.73347 10.3591 3.96549 10.2319 4.18527C10.1043 4.40545 9.93637 4.57921 9.72804 4.70668V8.30333H13.255C13.3825 8.09481 13.5562 7.92706 13.7763 7.79949C13.9962 7.67202 14.228 7.60844 14.4713 7.60844C14.6565 7.60844 14.8362 7.64902 15.0099 7.73008C15.1837 7.81114 15.334 7.9154 15.4618 8.04287C15.589 8.17043 15.6932 8.32081 15.7746 8.49457C15.8551 8.66804 15.8957 8.84783 15.8957 9.03287L15.8955 9.03295Z" fill="#808191"/>
</svg>
