<svg width="18" height="18" viewBox="0 0 18 18" fill="none" xmlns="http://www.w3.org/2000/svg">
<path d="M13.6666 9.19432V4.22516L4.33306 4.2223C4.33306 4.2223 4.33364 7.66864 4.33325 8.86145C4.34732 7.86161 5.12301 7.05576 6.08403 7.05576H7.24879C8.21579 7.05576 8.99977 7.87861 8.99977 8.88909C8.99977 7.87656 9.78082 7.05576 10.7508 7.05576H11.9155C12.8825 7.05576 13.6665 7.87861 13.6665 8.88909L13.6666 9.19432ZM3.16655 9.49991V4.22511C3.16655 3.54845 3.69048 3 4.33316 3H13.6667C14.311 3 14.8333 3.5501 14.8333 4.22511V9.49991H15.4163C15.7387 9.49991 16 9.77265 16 10.1095V14.3904C16 14.727 15.7412 15 15.4168 15H13.6666C13.3444 15 12.9653 14.7526 12.8223 14.4533L12.7609 14.3246C12.6168 14.0226 12.2369 13.7777 11.9141 13.7777H6.08586C5.76234 13.7777 5.38196 14.0251 5.23909 14.3246L5.17766 14.4533C5.03352 14.7552 4.65783 15 4.33341 15H2.5832C2.26113 15 2 14.7273 2 14.3904V10.1095C2 9.77286 2.26103 9.49991 2.5837 9.49991H3.16655ZM3.16655 13.7776H4.19546C4.53648 13.0633 5.32134 12.5554 6.08569 12.5554H11.914C12.6781 12.5554 13.4622 13.0612 13.8042 13.7776H14.8331V10.7222H3.16655V13.7776ZM7.83307 9.49991V8.88883C7.83307 8.55255 7.57077 8.27765 7.24879 8.27765H6.08404C5.75961 8.27765 5.49976 8.55009 5.49976 8.88883V9.49991H7.83307ZM12.4998 9.49991V8.88883C12.4998 8.55255 12.2375 8.27765 11.9156 8.27765H10.7508C10.4264 8.27765 10.1665 8.55009 10.1665 8.88883V9.49991H12.4998Z" fill="#808191"/>
</svg>
