<svg width="18" height="18" viewBox="0 0 18 18" fill="none" xmlns="http://www.w3.org/2000/svg">
<path d="M7.77306 12.3153C7.44189 12.3153 7.1731 12.0465 7.1731 11.7153V6.30193C7.1731 5.97076 7.44189 5.70197 7.77306 5.70197H9.48908C10.7053 5.70197 11.6953 6.69137 11.6953 7.90817C11.6953 9.12497 10.7059 10.1138 9.48908 10.1138H8.37313V11.7146C8.37303 12.0463 8.10483 12.3151 7.77306 12.3151V12.3153ZM8.37303 8.91378H9.48898C10.0439 8.91378 10.4952 8.46257 10.4952 7.90823C10.4952 7.35326 10.0439 6.90205 9.48898 6.90205H8.37303V8.91378Z" fill="black"/>
<path d="M9.00837 15.0086C7.50298 15.0086 6.05997 14.4434 4.94654 13.4162C4.70296 13.1912 4.68739 12.812 4.91179 12.5684C5.13619 12.3248 5.51538 12.3087 5.75956 12.5337C6.65172 13.3562 7.80544 13.8086 9.00856 13.8086C11.6551 13.8086 13.8086 11.6553 13.8086 9.00854C13.8086 6.36203 11.6553 4.20846 9.00856 4.20846C6.36205 4.20846 4.20848 6.36182 4.20848 9.00854C4.20848 9.72132 4.36688 10.4138 4.67828 11.0677C4.82051 11.3671 4.69385 11.7253 4.39511 11.8675C4.09567 12.0097 3.73808 11.883 3.59534 11.5843C3.2059 10.7678 3.00854 9.90132 3.00854 9.00849C3.00854 5.70009 5.70006 3.00858 9.00846 3.00858C12.3169 3.00858 15.0084 5.70009 15.0084 9.00849C15.0084 12.3169 12.3169 15.0084 9.00846 15.0084L9.00837 15.0086Z" fill="black"/>
</svg>
