<svg width="18" height="18" viewBox="0 0 18 18" fill="none" xmlns="http://www.w3.org/2000/svg">
<path fill-rule="evenodd" clip-rule="evenodd" d="M4.21911 4.21914C6.86177 1.57649 11.1478 1.57649 13.7905 4.21914C16.4331 6.8618 16.4331 11.1479 13.7905 13.7905C11.1478 16.4332 6.86177 16.4332 4.21911 13.7905C1.57646 11.1479 1.57646 6.8618 4.21911 4.21914ZM5.01867 5.0187C7.21966 2.81772 10.7897 2.81772 12.9909 5.0187C15.192 7.21969 15.1919 10.7898 12.9909 12.9909C10.7899 15.192 7.21982 15.1919 5.01867 12.9909C2.81753 10.7899 2.81769 7.21985 5.01867 5.0187Z" fill="#0A0A0B"/>
<path fill-rule="evenodd" clip-rule="evenodd" d="M4.5282 9.18379C5.14935 7.48513 6.40012 7.7722 6.16126 6.08496C6.04665 7.65312 4.98946 7.1529 4.5282 9.18379Z" fill="#0A0A0B"/>
<path fill-rule="evenodd" clip-rule="evenodd" d="M4.6236 9.14522C5.31708 8.0187 6.01518 8.29222 6.18926 7.12091C5.82494 8.18895 5.28342 7.78125 4.6236 9.14522Z" fill="#0A0A0B"/>
<path fill-rule="evenodd" clip-rule="evenodd" d="M4.45129 9.04261C4.7197 7.6894 5.57388 7.66489 5.27263 6.48062C5.32918 7.64409 4.58547 7.47726 4.45129 9.04261Z" fill="#0A0A0B"/>
<path fill-rule="evenodd" clip-rule="evenodd" d="M13.4009 8.26656C10.5489 9.24339 7.69643 10.2204 4.84446 11.1975C4.66827 11.2578 4.45784 11.112 4.37597 10.873L4.12003 10.1259C4.03817 9.88704 4.11511 9.64276 4.2913 9.58249C7.14327 8.60565 9.99575 7.62861 12.8477 6.65157C13.1222 6.55755 13.4131 6.67578 13.4949 6.91473L13.7508 7.66186C13.8326 7.90072 13.6754 8.17252 13.4009 8.26656H13.4009ZM11.4488 8.81399C11.4881 8.71153 11.4903 8.58065 11.446 8.45129L11.1901 7.70416C11.1458 7.57479 11.0636 7.47283 10.9698 7.41598L4.82947 9.51923C4.92329 9.57608 5.00535 9.67803 5.04965 9.80741L5.30559 10.5545C5.34988 10.6839 5.34757 10.8148 5.3083 10.9172L11.4489 8.81399H11.4488Z" fill="#0A0A0B"/>
</svg>
