<svg width="18" height="18" viewBox="0 0 18 18" fill="none" xmlns="http://www.w3.org/2000/svg">
<path d="M8.99997 5.00001C6.67175 5.00001 4.56163 6.01541 3.1052 7.75366C3.00849 7.86869 2.97548 8.03121 3.01863 8.17995C3.06168 8.32869 3.17448 8.44108 3.31434 8.4748C3.45429 8.50852 3.60001 8.4584 3.6968 8.34337C4.99924 6.78898 6.88486 5.8711 9 5.8711C11.1151 5.8711 13.0008 6.78898 14.3032 8.34337C14.3751 8.42873 14.4751 8.47956 14.5813 8.48473C14.6876 8.48979 14.7914 8.44878 14.8698 8.37051C14.9483 8.29234 14.995 8.18339 14.9996 8.06775C15.0043 7.95201 14.9666 7.83901 14.8948 7.75365C13.4382 6.01548 11.3282 5 9.00004 5L8.99997 5.00001ZM8.99997 7.46772C7.3808 7.46772 5.8838 8.15353 4.8423 9.34572C4.7693 9.42997 4.73006 9.54226 4.73322 9.658C4.73629 9.77373 4.78158 9.88329 4.85885 9.96278C4.93622 10.0422 5.03935 10.0849 5.14564 10.0815C5.25193 10.078 5.35255 10.0288 5.42555 9.94456C6.30886 8.9332 7.58758 8.33874 8.99997 8.33874C10.4124 8.33874 11.691 8.93323 12.5744 9.94456C12.6474 10.0288 12.748 10.078 12.8543 10.0815C12.9606 10.0849 13.0637 10.0422 13.1411 9.96278C13.2184 9.8833 13.2637 9.77374 13.2667 9.658C13.2699 9.54226 13.2306 9.42997 13.1576 9.34572C12.1162 8.15353 10.6192 7.46772 8.99998 7.46772H8.99997ZM8.99997 9.79035C8.09302 9.79035 7.2202 10.1286 6.59202 10.7838C6.50228 10.8593 6.4463 10.9727 6.43784 11.0958C6.42938 11.2189 6.46927 11.3401 6.54766 11.4293C6.62606 11.5185 6.7355 11.5673 6.84876 11.5635C6.96211 11.5599 7.06859 11.504 7.14185 11.4097C7.5989 10.933 8.27615 10.6612 8.99991 10.6612C9.72367 10.6612 10.4009 10.933 10.858 11.4097C10.9312 11.504 11.0377 11.5599 11.1511 11.5635C11.2643 11.5673 11.3738 11.5185 11.4522 11.4293C11.5305 11.3401 11.5704 11.2189 11.562 11.0958C11.5535 10.9727 11.4975 10.8593 11.4078 10.7838C10.7796 10.1286 9.90683 9.79035 8.99986 9.79035H8.99997ZM8.99997 11.6775C8.4157 11.6775 7.93345 12.2025 7.93345 12.8387C7.93345 13.475 8.4157 14 8.99997 14C9.58423 14 10.0665 13.475 10.0665 12.8387C10.0665 12.2025 9.58423 11.6775 8.99997 11.6775ZM8.99997 12.5484C9.15191 12.5484 9.26656 12.6732 9.26656 12.8387C9.26656 13.0042 9.15191 13.1291 8.99997 13.1291C8.84802 13.1291 8.73337 13.0042 8.73337 12.8387C8.73337 12.6732 8.84802 12.5484 8.99997 12.5484Z" fill="black"/>
</svg>
